<?xml version="1.0" standalone="no"?><!DOCTYPE svg PUBLIC "-//W3C//DTD SVG 1.1//EN" "http://www.w3.org/Graphics/SVG/1.1/DTD/svg11.dtd"><svg t="1568185961625" class="icon" viewBox="0 0 1024 1024" version="1.1" xmlns="http://www.w3.org/2000/svg" p-id="3121" xmlns:xlink="http://www.w3.org/1999/xlink" width="2000" height="2000"><defs><style type="text/css"></style></defs><path d="M511.737436 496.613744l406.317949-248.306872L511.737436 0 99.643077 250.328615l412.094359 246.285129zM91.897436 276.795077v492.544l408.234667 248.306872V521.032205L91.897436 276.795077z m232.159179 614.662564l-89.00923-54.954667L117.077333 305.283282l104.500513 69.211897S287.271385 687.917949 291.18359 706.244923l98.671589-219.818667 96.728616 63.094154-162.52718 341.937231z m199.286154-370.425436v496.613744L931.577436 769.312821V272.725333l-408.234667 248.306872z m270.887385 311.401026l-89.009231-116.027077-44.504615 28.514461 7.745641 166.885744-75.460923 46.815179-17.408-431.471589 154.781538-97.700103c81.26359-48.836923 143.176205-42.745436 150.89559 38.675692 3.885949 73.255385-38.675692 142.467282-94.785641 191.304206l108.333949 109.909333-100.588308 63.094154z" fill="#1296db" p-id="3122"></path><path d="M714.279385 506.144821l-62.595282 41.485128 5.513846 130.809436 62.595282-41.537641c29.459692-20.742564 73.622974-68.502974 71.785025-105.865847-3.675897-53.956923-38.649436-51.882667-77.298871-24.891076z" fill="#1296db" p-id="3123"></path></svg>